<svg xmlns="http://www.w3.org/2000/svg" viewBox="0 0 64 64" width="64" height="64">
  <rect width="64" height="64" rx="16" fill="#25D366"/>
  <path fill="#ffffff" d="M32 13c-10.5 0-19 8.2-19 18.3 0 3.2.9 6.3 2.5 9L13 51l11-2.8c2.5 1.3 5.3 2 8 2 10.5 0 19-8.2 19-18.3S42.5 13 32 13z"/>
  <path fill="#25D366" d="M25.5 24.2c-.4-.9-.8-.9-1.2-.9h-1c-.3 0-.9.1-1.4.6-.5.5-1.8 1.8-1.8 4.3s1.9 5 2.1 5.4c.3.4 3.6 5.8 9 7.9 4.4 1.7 5.3 1.4 6.3 1.3 1-.1 3.2-1.3 3.7-2.6.5-1.3.5-2.4.3-2.6-.1-.2-.5-.4-1-.6-.5-.3-3.2-1.6-3.7-1.8-.5-.2-.9-.3-1.2.3-.4.5-1.4 1.7-1.7 2.1-.3.4-.6.4-1.1.1-.5-.3-2.3-.8-4.3-2.7-1.6-1.4-2.7-3.1-3-3.7-.3-.5 0-.8.2-1.1.2-.2.5-.6.8-.9.2-.3.3-.5.5-.9.2-.3.1-.6 0-.9-.2-.3-1.2-3-1.5-3.1z"/>
  <circle cx="48" cy="18" r="7" fill="#34B7F1"/>
  <path fill="#ffffff" d="M48 13.5l1.2 2.6 2.8.3-2.1 1.9.6 2.8-2.5-1.4-2.5 1.4.6-2.8-2.1-1.9 2.8-.3z"/>
</svg>
